# Blender v2.81 (sub 16) OBJ File: 'scythe_kite.blend'
# www.blender.org
mtllib scythe_kite_low.mtl
o kite_Plane.001
v 0.000000 0.000000 -2.362701
v 1.459396 0.261441 0.348642
v 1.491931 0.000000 -1.199798
v 3.769842 0.000000 1.821114
v 0.000000 0.000000 0.992333
v 2.478838 0.228465 0.845963
v 2.772603 0.000000 0.285431
v 0.685180 0.220587 0.483511
v 0.740030 0.000000 -1.861382
v 3.746360 0.000000 1.934536
v 2.134186 0.000000 -0.493818
v 1.972969 0.241676 0.567979
v 3.195003 0.000000 0.871250
v 3.027074 0.112271 1.218763
v 3.752230 0.000000 1.906180
v 3.758101 0.000000 1.877825
v 3.763971 0.000000 1.849469
v 0.000000 0.000000 -1.523943
v 0.000000 0.000000 -0.685184
v 0.000000 0.000000 0.153574
v 2.552279 0.217587 0.705830
v 2.625721 0.189653 0.565697
v 2.699162 0.138393 0.425564
v 1.483797 0.159147 -0.812688
v 1.475664 0.221878 -0.425578
v 1.467530 0.252133 -0.038468
v 0.698892 0.208359 -0.102713
v 0.712605 0.151659 -0.688936
v 0.726317 0.097676 -1.275159
v 2.013273 0.241871 0.302530
v 2.053577 0.232376 0.037080
v 2.093881 0.211893 -0.228369
v 3.069056 0.111503 1.131885
v 3.111038 0.109167 1.045007
v 3.153020 0.105159 0.958128
v -1.459396 0.261441 0.348642
v -1.491931 0.000000 -1.199798
v -3.769842 0.000000 1.821114
v -2.478838 0.228465 0.845963
v -2.772603 0.000000 0.285431
v -0.685180 0.220587 0.483511
v -0.740030 0.000000 -1.861382
v -3.746360 0.000000 1.934536
v -2.134186 0.000000 -0.493818
v -1.972969 0.241676 0.567979
v -3.195003 0.000000 0.871250
v -3.027074 0.112271 1.218763
v -3.752230 0.000000 1.906180
v -3.758101 0.000000 1.877825
v -3.763971 0.000000 1.849469
v -2.552279 0.217587 0.705830
v -2.625721 0.189653 0.565697
v -2.699162 0.138393 0.425564
v -1.483797 0.159147 -0.812688
v -1.475664 0.221878 -0.425578
v -1.467530 0.252133 -0.038468
v -0.698892 0.208359 -0.102713
v -0.712605 0.151659 -0.688936
v -0.726317 0.097676 -1.275159
v -2.013273 0.241871 0.302530
v -2.053577 0.232376 0.037080
v -2.093881 0.211893 -0.228369
v -3.069056 0.111503 1.131885
v -3.111038 0.109167 1.045007
v -3.153020 0.105159 0.958128
v 0.370015 0.000000 -2.112042
v 0.342590 0.140492 0.737922
v 0.363159 0.079036 -1.399551
v 0.356302 0.106028 -0.687060
v 0.349446 0.134378 0.025431
v -0.363159 0.079036 -1.399551
v -0.349446 0.134378 0.025431
v -0.356302 0.106028 -0.687060
v -0.370015 0.000000 -2.112042
v -0.342590 0.140492 0.737922
vt 1.000000 0.388197
vt 1.000000 0.375000
vt 1.000000 0.250000
vt 1.000000 0.302786
vt 1.000000 0.311575
vt 1.000000 0.250000
vt 1.000000 0.000000
vt 1.000000 0.123150
vt 0.562500 0.375000
vt 1.000000 0.750000
vt 1.000000 1.000000
vt 0.500000 0.500000
vt 0.343750 0.062500
vt 0.375000 0.000000
vt 0.750000 0.000000
vt 0.687500 0.125000
vt 1.000000 0.406250
vt 1.000000 0.375000
vt 1.000000 0.500000
vt 1.000000 0.644427
vt 1.000000 0.559017
vt 1.000000 0.468750
vt 1.000000 0.473607
vt 1.000000 0.437500
vt 1.000000 0.750000
vt 1.000000 0.876850
vt 1.000000 0.688425
vt 1.000000 0.625000
vt 1.000000 0.500000
vt 1.000000 0.500000
vt 0.250000 0.250000
vt 0.281250 0.187500
vt 0.312500 0.125000
vt 0.625000 0.250000
vt 1.000000 0.500000
vt 1.000000 0.388197
vt 1.000000 0.302786
vt 1.000000 0.250000
vt 1.000000 0.375000
vt 1.000000 0.311575
vt 1.000000 0.123150
vt 1.000000 0.000000
vt 1.000000 0.250000
vt 0.562500 0.375000
vt 0.500000 0.500000
vt 1.000000 1.000000
vt 1.000000 0.750000
vt 0.343750 0.062500
vt 0.687500 0.125000
vt 0.750000 0.000000
vt 0.375000 0.000000
vt 1.000000 0.406250
vt 1.000000 0.375000
vt 1.000000 0.500000
vt 1.000000 0.468750
vt 1.000000 0.559017
vt 1.000000 0.644427
vt 1.000000 0.437500
vt 1.000000 0.473607
vt 1.000000 0.750000
vt 1.000000 0.625000
vt 1.000000 0.688425
vt 1.000000 0.876850
vt 1.000000 0.500000
vt 1.000000 0.500000
vt 0.250000 0.250000
vt 0.281250 0.187500
vt 0.625000 0.250000
vt 0.312500 0.125000
vt 1.000000 0.500000
vt 0.000000 0.000000
vt 0.000000 0.000000
vt 0.000000 0.000000
vt 0.000000 0.000000
vt 0.000000 0.000000
vn 0.1552 0.9876 0.0234
vn 0.1336 0.9909 -0.0161
vn 0.1131 0.9935 0.0136
vn 0.1411 0.9892 0.0402
vn 0.0624 0.9974 -0.0365
vn -0.0082 0.9987 -0.0490
vn -0.0084 0.9998 -0.0171
vn 0.0405 0.9991 -0.0128
vn 0.0298 0.9882 -0.1501
vn 0.1759 0.9488 -0.2624
vn 0.2209 0.9273 -0.3021
vn 0.0738 0.9830 -0.1682
vn -0.2764 0.9607 -0.0251
vn -0.3287 0.9444 -0.0089
vn -0.1616 0.9866 -0.0197
vn -0.1263 0.9905 -0.0531
vn 0.1180 0.9922 0.0384
vn 0.1147 0.9925 0.0410
vn 0.6285 0.6865 -0.3656
vn 0.6016 0.6856 -0.4098
vn 0.4314 0.8680 -0.2459
vn 0.2772 0.9573 -0.0812
vn 0.1765 0.9841 -0.0174
vn 0.1290 0.9912 0.0295
vn 0.5679 0.6934 -0.4436
vn 0.4582 0.7743 -0.4363
vn 0.3170 0.9019 -0.2933
vn 0.4161 0.8613 -0.2916
vn 0.1124 0.9897 -0.0882
vn 0.1888 0.9787 -0.0800
vn -0.0421 0.9961 -0.0774
vn -0.0934 0.9932 -0.0691
vn -0.2082 0.9772 -0.0419
vn -0.0837 0.9927 -0.0866
vn 0.0032 0.9947 -0.1028
vn -0.1552 0.9876 0.0234
vn -0.1411 0.9892 0.0402
vn -0.1131 0.9935 0.0136
vn -0.1336 0.9909 -0.0161
vn -0.0624 0.9974 -0.0365
vn -0.0405 0.9991 -0.0128
vn 0.0084 0.9998 -0.0171
vn 0.0082 0.9987 -0.0490
vn -0.0298 0.9882 -0.1501
vn -0.0738 0.9830 -0.1682
vn -0.2209 0.9273 -0.3021
vn -0.1759 0.9488 -0.2624
vn 0.2764 0.9607 -0.0251
vn 0.1263 0.9905 -0.0531
vn 0.1616 0.9866 -0.0197
vn 0.3287 0.9444 -0.0089
vn -0.1180 0.9922 0.0384
vn -0.1147 0.9925 0.0410
vn -0.6285 0.6865 -0.3656
vn -0.2772 0.9573 -0.0812
vn -0.4314 0.8680 -0.2459
vn -0.6016 0.6856 -0.4098
vn -0.1290 0.9912 0.0295
vn -0.1765 0.9841 -0.0174
vn -0.5679 0.6934 -0.4436
vn -0.4161 0.8613 -0.2916
vn -0.3170 0.9019 -0.2933
vn -0.4582 0.7743 -0.4363
vn -0.1888 0.9787 -0.0800
vn -0.1124 0.9897 -0.0882
vn 0.0421 0.9961 -0.0774
vn 0.0934 0.9932 -0.0691
vn 0.0837 0.9927 -0.0866
vn 0.2082 0.9772 -0.0419
vn -0.0032 0.9947 -0.1028
vn 0.0000 0.9998 -0.0191
vn 0.0000 0.9999 -0.0113
vn 0.0000 0.9992 -0.0385
vn 0.0000 0.9987 -0.0512
vn 0.0000 1.0000 -0.0057
usemtl None
s 1
f 33/1/1 21/2/2 6/3/3 14/4/4
f 30/5/5 26/6/6 2/7/7 12/8/8
f 29/9/9 24/10/10 3/11/11 9/12/12
f 70/13/13 67/14/14 8/15/15 27/16/16
f 21/2/2 30/5/5 12/8/8 6/3/3
f 15/17/17 33/1/1 14/4/4 10/18/18
f 4/19/19 13/20/20 35/21/21 17/22/22
f 17/22/22 35/21/21 34/23/23 16/24/24
f 16/24/24 34/23/23 33/1/1 15/17/17
f 7/25/25 11/26/26 32/27/27 23/28/28
f 23/28/28 32/27/27 31/29/29 22/30/30
f 22/30/30 31/29/29 30/5/5 21/2/2
f 66/31/31 68/32/32 29/9/9 9/12/12
f 68/32/32 69/33/33 28/34/34 29/9/9
f 69/33/33 70/13/13 27/16/16 28/34/34
f 8/15/15 2/7/7 26/6/6 27/16/16
f 27/16/16 26/6/6 25/35/35 28/34/34
f 28/34/34 25/35/35 24/10/10 29/9/9
f 11/26/26 3/11/11 24/10/10 32/27/27
f 32/27/27 24/10/10 25/35/35 31/29/29
f 31/29/29 25/35/35 26/6/6 30/5/5
f 13/20/20 7/25/25 23/28/28 35/21/21
f 35/21/21 23/28/28 22/30/30 34/23/23
f 34/23/23 22/30/30 21/2/2 33/1/1
f 63/36/36 47/37/37 39/38/38 51/39/39
f 60/40/40 45/41/41 36/42/42 56/43/43
f 59/44/44 42/45/45 37/46/46 54/47/47
f 72/48/48 57/49/49 41/50/50 75/51/51
f 51/39/39 39/38/38 45/41/41 60/40/40
f 48/52/52 43/53/53 47/37/37 63/36/36
f 38/54/54 50/55/55 65/56/56 46/57/57
f 50/55/55 49/58/58 64/59/59 65/56/56
f 49/58/58 48/52/52 63/36/36 64/59/59
f 40/60/60 53/61/61 62/62/62 44/63/63
f 53/61/61 52/64/64 61/65/65 62/62/62
f 52/64/64 51/39/39 60/40/40 61/65/65
f 74/66/66 42/45/45 59/44/44 71/67/67
f 71/67/67 59/44/44 58/68/68 73/69/69
f 73/69/69 58/68/68 57/49/49 72/48/48
f 41/50/50 57/49/49 56/43/43 36/42/42
f 57/49/49 58/68/68 55/70/70 56/43/43
f 58/68/68 59/44/44 54/47/47 55/70/70
f 44/63/63 62/62/62 54/47/47 37/46/46
f 62/62/62 61/65/65 55/70/70 54/47/47
f 61/65/65 60/40/40 56/43/43 55/70/70
f 46/57/57 65/56/56 53/61/61 40/60/60
f 65/56/56 64/59/59 52/64/64 53/61/61
f 64/59/59 63/36/36 51/39/39 52/64/64
f 19/71/71 20/72/72 70/13/13 69/33/33
f 18/73/73 19/71/71 69/33/33 68/32/32
f 1/74/74 18/73/73 68/32/32 66/31/31
f 20/72/72 5/75/75 67/14/14 70/13/13
f 19/71/71 73/69/69 72/48/48 20/72/72
f 18/73/73 71/67/67 73/69/69 19/71/71
f 1/74/74 74/66/66 71/67/67 18/73/73
f 20/72/72 72/48/48 75/51/51 5/75/75
