# Blender v2.81 (sub 16) OBJ File: 'fish_kite.blend'
# www.blender.org
mtllib fish_kite.mtl
o fish_kite_Plane
v 0.000000 0.233681 3.333879
v 0.997892 0.509535 2.552264
v 0.000000 0.000000 -4.661983
v 4.443230 0.000000 -1.049189
v 0.000000 0.076353 -3.329339
v 0.000000 0.212141 -1.996695
v 0.000000 0.387436 -0.664052
v 0.000000 0.395603 0.668592
v 0.000000 0.368087 2.001235
v 1.443872 0.657053 1.937383
v 2.003690 0.678878 1.312663
v 2.602156 0.633610 0.692862
v 3.170406 0.523949 0.097656
v 3.793467 0.324496 -0.490523
v 0.166315 0.289899 3.203610
v 0.332631 0.319931 3.073341
v 0.498946 0.346962 2.943072
v 0.665261 0.396091 2.812803
v 0.831577 0.457197 2.682534
v 3.702691 0.000000 -1.651321
v 2.962153 0.000000 -2.253453
v 2.221615 0.000000 -2.855586
v 1.481076 0.000000 -3.457718
v 0.740538 0.000000 -4.059850
v 1.203227 0.654728 1.948025
v 0.962581 0.641098 1.958667
v 0.721936 0.616156 1.969309
v 0.481291 0.579889 1.979951
v 0.240645 0.532278 1.990593
v 1.669741 0.714811 1.205318
v 1.335793 0.726784 1.097973
v 1.001845 0.714811 0.990628
v 0.667897 0.678878 0.883282
v 0.333948 0.618948 0.775937
v 2.168463 0.703503 0.466710
v 1.734771 0.726784 0.240558
v 1.301078 0.703503 0.014405
v 0.867385 0.633610 -0.211747
v 0.433693 0.516957 -0.437899
v 2.642005 0.623070 -0.251403
v 2.113604 0.643948 -0.600461
v 1.585203 0.586656 -0.949520
v 1.056802 0.450992 -1.298578
v 0.528401 0.358172 -1.647637
v 3.161222 0.386835 -0.963659
v 2.528978 0.390808 -1.436795
v 1.896733 0.328595 -1.909931
v 1.264489 0.246069 -2.383067
v 0.632244 0.163565 -2.856203
v -0.997892 0.509535 2.552264
v -4.443230 0.000000 -1.049189
v -1.443872 0.657053 1.937383
v -2.003690 0.678878 1.312663
v -2.602156 0.633610 0.692862
v -3.170406 0.523949 0.097656
v -3.793467 0.324496 -0.490523
v -0.166315 0.289899 3.203610
v -0.332631 0.319931 3.073341
v -0.498946 0.346962 2.943072
v -0.665261 0.396091 2.812803
v -0.831577 0.457197 2.682534
v -3.702691 0.000000 -1.651321
v -2.962153 0.000000 -2.253453
v -2.221615 0.000000 -2.855586
v -1.481076 0.000000 -3.457718
v -0.740538 0.000000 -4.059850
v -1.203227 0.654728 1.948025
v -0.962581 0.641098 1.958667
v -0.721936 0.616156 1.969309
v -0.481291 0.579889 1.979951
v -0.240645 0.532278 1.990593
v -1.669741 0.714811 1.205318
v -1.335793 0.726784 1.097973
v -1.001845 0.714811 0.990628
v -0.667897 0.678878 0.883282
v -0.333948 0.618948 0.775937
v -2.168463 0.703503 0.466710
v -1.734771 0.726784 0.240558
v -1.301078 0.703503 0.014405
v -0.867385 0.633610 -0.211747
v -0.433693 0.516957 -0.437899
v -2.642005 0.623070 -0.251403
v -2.113604 0.643948 -0.600461
v -1.585203 0.586656 -0.949520
v -1.056802 0.450992 -1.298578
v -0.528401 0.358172 -1.647637
v -3.161222 0.386835 -0.963659
v -2.528978 0.390808 -1.436795
v -1.896733 0.328595 -1.909931
v -1.264489 0.246069 -2.383067
v -0.632244 0.163565 -2.856203
v 0.000000 -0.048233 3.654788
v 0.000000 0.184226 1.022960
v 1.573342 0.155634 3.889021
v 1.684271 0.151580 3.809909
v 1.303869 0.253235 3.109182
v 0.890934 0.281768 2.353009
v 0.453600 0.238143 1.565968
v 1.180007 0.208497 3.717162
v 0.786671 0.226889 3.640236
v 0.393336 0.216615 3.630178
v 0.000000 0.126111 1.680917
v 0.000000 0.067996 2.338874
v 0.000000 0.009881 2.996831
v 1.601075 0.154868 3.869265
v 1.628807 0.153937 3.849494
v 1.656539 0.152841 3.829709
v 0.408402 0.272961 3.118627
v 0.423468 0.299272 2.604423
v 0.438534 0.287666 2.086870
v 0.812737 0.255199 3.319718
v 0.838803 0.276053 2.998541
v 0.864869 0.282954 2.676132
v 1.210972 0.220138 3.565207
v 1.241938 0.232991 3.413360
v 1.272903 0.244843 3.261424
v -1.573342 0.155634 3.889021
v -1.684271 0.151580 3.809909
v -1.303869 0.253235 3.109182
v -0.890934 0.281768 2.353009
v -0.453600 0.238143 1.565968
v -1.180007 0.208497 3.717162
v -0.786671 0.226889 3.640236
v -0.393336 0.216615 3.630178
v -1.601075 0.154868 3.869265
v -1.628807 0.153937 3.849494
v -1.656539 0.152841 3.829709
v -0.408402 0.272961 3.118627
v -0.423468 0.299272 2.604423
v -0.438534 0.287666 2.086870
v -0.812737 0.255199 3.319718
v -0.838803 0.276053 2.998541
v -0.864869 0.282954 2.676132
v -1.210972 0.220138 3.565207
v -1.241938 0.232991 3.413360
v -1.272903 0.244843 3.261424
vt 0.833333 0.833333
vt 1.000000 0.833333
vt 1.000000 1.000000
vt 0.833333 1.000000
vt 0.833333 0.000000
vt 1.000000 0.000000
vt 1.000000 0.166667
vt 0.833333 0.166667
vt 1.000000 0.333333
vt 0.833333 0.333333
vt 1.000000 0.500000
vt 0.833333 0.500000
vt 1.000000 0.666667
vt 0.833333 0.666667
vt 0.000000 0.666667
vt 0.166667 0.666667
vt 0.166667 0.833333
vt 0.000000 0.833333
vt 0.333333 0.666667
vt 0.333333 0.833333
vt 0.500000 0.666667
vt 0.500000 0.833333
vt 0.666667 0.666667
vt 0.666667 0.833333
vt 0.000000 0.500000
vt 0.166667 0.500000
vt 0.333333 0.500000
vt 0.500000 0.500000
vt 0.666667 0.500000
vt 0.000000 0.333333
vt 0.166667 0.333333
vt 0.333333 0.333333
vt 0.500000 0.333333
vt 0.666667 0.333333
vt 0.000000 0.166667
vt 0.166667 0.166667
vt 0.333333 0.166667
vt 0.500000 0.166667
vt 0.666667 0.166667
vt 0.000000 0.000000
vt 0.166667 0.000000
vt 0.333333 0.000000
vt 0.500000 0.000000
vt 0.666667 0.000000
vt 0.166667 1.000000
vt 0.000000 1.000000
vt 0.333333 1.000000
vt 0.500000 1.000000
vt 0.666667 1.000000
vt 0.833333 0.833333
vt 0.833333 1.000000
vt 1.000000 1.000000
vt 1.000000 0.833333
vt 0.833333 0.000000
vt 0.833333 0.166667
vt 1.000000 0.166667
vt 1.000000 0.000000
vt 0.833333 0.333333
vt 1.000000 0.333333
vt 0.833333 0.500000
vt 1.000000 0.500000
vt 0.833333 0.666667
vt 1.000000 0.666667
vt 0.166667 0.833333
vt 0.166667 0.666667
vt 0.333333 0.833333
vt 0.333333 0.666667
vt 0.500000 0.833333
vt 0.500000 0.666667
vt 0.666667 0.833333
vt 0.666667 0.666667
vt 0.166667 0.500000
vt 0.333333 0.500000
vt 0.500000 0.500000
vt 0.666667 0.500000
vt 0.166667 0.333333
vt 0.333333 0.333333
vt 0.500000 0.333333
vt 0.666667 0.333333
vt 0.166667 0.166667
vt 0.333333 0.166667
vt 0.500000 0.166667
vt 0.666667 0.166667
vt 0.166667 0.000000
vt 0.333333 0.000000
vt 0.500000 0.000000
vt 0.666667 0.000000
vt 0.166667 1.000000
vt 0.333333 1.000000
vt 0.500000 1.000000
vt 0.666667 1.000000
vt 0.125000 0.125000
vt 0.166667 0.125000
vt 0.166667 0.166667
vt 0.125000 0.166667
vt 0.000000 0.125000
vt 0.041667 0.125000
vt 0.041667 0.166667
vt 0.000000 0.166667
vt 0.083333 0.125000
vt 0.083333 0.166667
vt 0.083333 0.000000
vt 0.125000 0.000000
vt 0.125000 0.041667
vt 0.083333 0.041667
vt 0.125000 0.083333
vt 0.083333 0.083333
vt 0.041667 0.000000
vt 0.041667 0.041667
vt 0.041667 0.083333
vt 0.000000 0.000000
vt 0.000000 0.041667
vt 0.000000 0.083333
vt 0.166667 0.000000
vt 0.166667 0.041667
vt 0.166667 0.083333
vt 0.125000 0.125000
vt 0.125000 0.166667
vt 0.166667 0.166667
vt 0.166667 0.125000
vt 0.041667 0.166667
vt 0.041667 0.125000
vt 0.083333 0.166667
vt 0.083333 0.125000
vt 0.083333 0.000000
vt 0.083333 0.041667
vt 0.125000 0.041667
vt 0.125000 0.000000
vt 0.083333 0.083333
vt 0.125000 0.083333
vt 0.041667 0.000000
vt 0.041667 0.041667
vt 0.041667 0.083333
vt 0.166667 0.041667
vt 0.166667 0.000000
vt 0.166667 0.083333
vn 0.2250 0.9464 -0.2314
vn 0.2454 0.9456 -0.2134
vn 0.2603 0.9244 -0.2788
vn 0.2541 0.9207 -0.2962
vn -0.0931 0.9695 0.2264
vn -0.0565 0.9749 0.2151
vn 0.0150 0.9918 0.1265
vn -0.0346 0.9877 0.1525
vn 0.0885 0.9939 0.0659
vn 0.0440 0.9973 0.0587
vn 0.1506 0.9884 0.0187
vn 0.1025 0.9947 0.0004
vn 0.2036 0.9762 -0.0740
vn 0.1615 0.9818 -0.0995
vn 0.0000 0.9909 -0.1345
vn -0.1115 0.9820 -0.1524
vn -0.0136 0.9893 -0.1450
vn 0.0000 0.9944 -0.1053
vn -0.0689 0.9802 -0.1856
vn 0.0425 0.9781 -0.2037
vn -0.0183 0.9811 -0.1926
vn 0.0913 0.9625 -0.2555
vn 0.0761 0.9846 -0.1571
vn 0.1687 0.9486 -0.2676
vn 0.0000 0.9937 -0.1119
vn -0.2350 0.9658 -0.1098
vn -0.1351 0.9836 -0.1195
vn -0.0677 0.9937 -0.0889
vn 0.0176 0.9988 -0.0448
vn 0.0000 0.9996 -0.0286
vn -0.3429 0.9391 -0.0207
vn -0.1570 0.9875 -0.0050
vn -0.0906 0.9958 0.0155
vn -0.0232 0.9990 0.0368
vn 0.0000 0.9967 0.0811
vn -0.3348 0.9369 0.1008
vn -0.1293 0.9816 0.1402
vn -0.0972 0.9831 0.1549
vn -0.0756 0.9849 0.1557
vn 0.0000 0.9912 0.1324
vn -0.3590 0.9224 0.1421
vn -0.1047 0.9722 0.2092
vn -0.0737 0.9685 0.2378
vn -0.0920 0.9657 0.2426
vn 0.0294 0.9927 -0.1167
vn 0.0000 0.9956 -0.0937
vn 0.0918 0.9771 -0.1922
vn 0.1541 0.9524 -0.2629
vn 0.2168 0.9272 -0.3055
vn -0.2250 0.9464 -0.2314
vn -0.2541 0.9207 -0.2962
vn -0.2603 0.9244 -0.2788
vn -0.2454 0.9456 -0.2134
vn 0.0931 0.9695 0.2264
vn 0.0346 0.9877 0.1525
vn -0.0150 0.9918 0.1265
vn 0.0565 0.9749 0.2151
vn -0.0440 0.9973 0.0587
vn -0.0885 0.9939 0.0659
vn -0.1025 0.9947 0.0004
vn -0.1506 0.9884 0.0187
vn -0.1615 0.9818 -0.0995
vn -0.2036 0.9762 -0.0740
vn 0.0136 0.9893 -0.1450
vn 0.1115 0.9820 -0.1524
vn -0.0425 0.9781 -0.2037
vn 0.0689 0.9802 -0.1856
vn -0.0913 0.9625 -0.2555
vn 0.0183 0.9811 -0.1926
vn -0.1687 0.9486 -0.2676
vn -0.0761 0.9846 -0.1571
vn 0.2350 0.9658 -0.1098
vn 0.1351 0.9836 -0.1195
vn 0.0677 0.9937 -0.0889
vn -0.0176 0.9988 -0.0448
vn 0.3429 0.9391 -0.0207
vn 0.1570 0.9875 -0.0050
vn 0.0906 0.9958 0.0155
vn 0.0232 0.9990 0.0368
vn 0.3348 0.9369 0.1008
vn 0.1293 0.9816 0.1402
vn 0.0972 0.9831 0.1549
vn 0.0756 0.9849 0.1557
vn 0.3590 0.9224 0.1421
vn 0.1047 0.9722 0.2092
vn 0.0737 0.9685 0.2378
vn 0.0920 0.9657 0.2426
vn -0.0294 0.9927 -0.1167
vn -0.0918 0.9771 -0.1922
vn -0.1541 0.9524 -0.2629
vn -0.2168 0.9272 -0.3055
vn 0.0784 0.9950 0.0616
vn 0.1063 0.9904 0.0880
vn 0.1166 0.9899 0.0808
vn 0.0626 0.9974 0.0342
vn 0.0000 0.9999 0.0120
vn -0.1718 0.9850 -0.0121
vn -0.1881 0.9821 -0.0072
vn 0.0000 1.0000 0.0041
vn 0.0431 0.9991 0.0051
vn 0.0469 0.9980 -0.0431
vn 0.0075 0.9955 0.0941
vn 0.0638 0.9937 0.0914
vn 0.0616 0.9940 0.0904
vn 0.0132 0.9966 0.0818
vn 0.0662 0.9945 0.0811
vn 0.0295 0.9985 0.0463
vn -0.3103 0.9463 0.0902
vn -0.2821 0.9567 0.0718
vn -0.2408 0.9701 0.0302
vn 0.0000 0.9960 0.0889
vn 0.0000 0.9972 0.0747
vn 0.0000 0.9990 0.0437
vn 0.0922 0.9912 0.0943
vn 0.0905 0.9911 0.0973
vn 0.0930 0.9909 0.0970
vn -0.0784 0.9950 0.0616
vn -0.0626 0.9974 0.0342
vn -0.1166 0.9899 0.0808
vn -0.1063 0.9904 0.0880
vn 0.1881 0.9821 -0.0072
vn 0.1718 0.9850 -0.0121
vn -0.0469 0.9980 -0.0431
vn -0.0431 0.9991 0.0051
vn -0.0075 0.9955 0.0941
vn -0.0132 0.9966 0.0818
vn -0.0616 0.9940 0.0904
vn -0.0638 0.9937 0.0914
vn -0.0295 0.9985 0.0463
vn -0.0662 0.9945 0.0811
vn 0.3103 0.9463 0.0902
vn 0.2821 0.9567 0.0718
vn 0.2408 0.9701 0.0302
vn -0.0905 0.9911 0.0973
vn -0.0922 0.9912 0.0943
vn -0.0930 0.9909 0.0970
usemtl None
s 1
f 45/1/1 14/2/2 4/3/3 20/4/4
f 19/5/5 2/6/6 10/7/7 25/8/8
f 25/8/8 10/7/7 11/9/9 30/10/10
f 30/10/10 11/9/9 12/11/11 35/12/12
f 35/12/12 12/11/11 13/13/13 40/14/14
f 40/14/14 13/13/13 14/2/2 45/1/1
f 6/15/15 44/16/16 49/17/17 5/18/18
f 44/16/16 43/19/19 48/20/20 49/17/17
f 43/19/19 42/21/21 47/22/22 48/20/20
f 42/21/21 41/23/23 46/24/24 47/22/22
f 41/23/23 40/14/14 45/1/1 46/24/24
f 7/25/25 39/26/26 44/16/16 6/15/15
f 39/26/26 38/27/27 43/19/19 44/16/16
f 38/27/27 37/28/28 42/21/21 43/19/19
f 37/28/28 36/29/29 41/23/23 42/21/21
f 36/29/29 35/12/12 40/14/14 41/23/23
f 8/30/30 34/31/31 39/26/26 7/25/25
f 34/31/31 33/32/32 38/27/27 39/26/26
f 33/32/32 32/33/33 37/28/28 38/27/27
f 32/33/33 31/34/34 36/29/29 37/28/28
f 31/34/34 30/10/10 35/12/12 36/29/29
f 9/35/35 29/36/36 34/31/31 8/30/30
f 29/36/36 28/37/37 33/32/32 34/31/31
f 28/37/37 27/38/38 32/33/33 33/32/32
f 27/38/38 26/39/39 31/34/34 32/33/33
f 26/39/39 25/8/8 30/10/10 31/34/34
f 1/40/40 15/41/41 29/36/36 9/35/35
f 15/41/41 16/42/42 28/37/37 29/36/36
f 16/42/42 17/43/43 27/38/38 28/37/37
f 17/43/43 18/44/44 26/39/39 27/38/38
f 18/44/44 19/5/5 25/8/8 26/39/39
f 5/18/18 49/17/17 24/45/45 3/46/46
f 49/17/17 48/20/20 23/47/47 24/45/45
f 48/20/20 47/22/22 22/48/48 23/47/47
f 47/22/22 46/24/24 21/49/49 22/48/48
f 46/24/24 45/1/1 20/4/4 21/49/49
f 87/50/50 62/51/51 51/52/52 56/53/53
f 61/54/54 67/55/55 52/56/56 50/57/57
f 67/55/55 72/58/58 53/59/59 52/56/56
f 72/58/58 77/60/60 54/61/61 53/59/59
f 77/60/60 82/62/62 55/63/63 54/61/61
f 82/62/62 87/50/50 56/53/53 55/63/63
f 6/15/15 5/18/18 91/64/64 86/65/65
f 86/65/65 91/64/64 90/66/66 85/67/67
f 85/67/67 90/66/66 89/68/68 84/69/69
f 84/69/69 89/68/68 88/70/70 83/71/71
f 83/71/71 88/70/70 87/50/50 82/62/62
f 7/25/25 6/15/15 86/65/65 81/72/72
f 81/72/72 86/65/65 85/67/67 80/73/73
f 80/73/73 85/67/67 84/69/69 79/74/74
f 79/74/74 84/69/69 83/71/71 78/75/75
f 78/75/75 83/71/71 82/62/62 77/60/60
f 8/30/30 7/25/25 81/72/72 76/76/76
f 76/76/76 81/72/72 80/73/73 75/77/77
f 75/77/77 80/73/73 79/74/74 74/78/78
f 74/78/78 79/74/74 78/75/75 73/79/79
f 73/79/79 78/75/75 77/60/60 72/58/58
f 9/35/35 8/30/30 76/76/76 71/80/80
f 71/80/80 76/76/76 75/77/77 70/81/81
f 70/81/81 75/77/77 74/78/78 69/82/82
f 69/82/82 74/78/78 73/79/79 68/83/83
f 68/83/83 73/79/79 72/58/58 67/55/55
f 1/40/40 9/35/35 71/80/80 57/84/84
f 57/84/84 71/80/80 70/81/81 58/85/85
f 58/85/85 70/81/81 69/82/82 59/86/86
f 59/86/86 69/82/82 68/83/83 60/87/87
f 60/87/87 68/83/83 67/55/55 61/54/54
f 5/18/18 3/46/46 66/88/88 91/64/64
f 91/64/64 66/88/88 65/89/89 90/66/66
f 90/66/66 65/89/89 64/90/90 89/68/68
f 89/68/68 64/90/90 63/91/91 88/70/70
f 88/70/70 63/91/91 62/51/51 87/50/50
f 116/92/92 107/93/93 95/94/94 96/95/95
f 102/96/96 110/97/97 98/98/98 93/99/99
f 110/97/97 113/100/100 97/101/101 98/98/98
f 113/100/100 116/92/92 96/95/95 97/101/101
f 100/102/102 99/103/103 114/104/104 111/105/105
f 111/105/105 114/104/104 115/106/106 112/107/107
f 112/107/107 115/106/106 116/92/92 113/100/100
f 101/108/108 100/102/102 111/105/105 108/109/109
f 108/109/109 111/105/105 112/107/107 109/110/110
f 109/110/110 112/107/107 113/100/100 110/97/97
f 92/111/111 101/108/108 108/109/109 104/112/112
f 104/112/112 108/109/109 109/110/110 103/113/113
f 103/113/113 109/110/110 110/97/97 102/96/96
f 99/103/103 94/114/114 105/115/115 114/104/104
f 114/104/104 105/115/115 106/116/116 115/106/106
f 115/106/106 106/116/116 107/93/93 116/92/92
f 136/117/117 119/118/118 118/119/119 127/120/120
f 102/96/96 93/99/99 121/121/121 130/122/122
f 130/122/122 121/121/121 120/123/123 133/124/124
f 133/124/124 120/123/123 119/118/118 136/117/117
f 123/125/125 131/126/126 134/127/127 122/128/128
f 131/126/126 132/129/129 135/130/130 134/127/127
f 132/129/129 133/124/124 136/117/117 135/130/130
f 124/131/131 128/132/132 131/126/126 123/125/125
f 128/132/132 129/133/133 132/129/129 131/126/126
f 129/133/133 130/122/122 133/124/124 132/129/129
f 92/111/111 104/112/112 128/132/132 124/131/131
f 104/112/112 103/113/113 129/133/133 128/132/132
f 103/113/113 102/96/96 130/122/122 129/133/133
f 122/128/128 134/127/127 125/134/134 117/135/135
f 134/127/127 135/130/130 126/136/136 125/134/134
f 135/130/130 136/117/117 127/120/120 126/136/136
